<svg width="21" height="20" viewBox="0 0 21 20" fill="none" xmlns="http://www.w3.org/2000/svg">
<path fill-rule="evenodd" clip-rule="evenodd" d="M10.5 18C12.6217 18 14.6566 17.1571 16.1569 15.6569C17.6571 14.1566 18.5 12.1217 18.5 10C18.5 7.87827 17.6571 5.84344 16.1569 4.34315C14.6566 2.84285 12.6217 2 10.5 2C8.37827 2 6.34344 2.84285 4.84315 4.34315C3.34285 5.84344 2.5 7.87827 2.5 10C2.5 12.1217 3.34285 14.1566 4.84315 15.6569C6.34344 17.1571 8.37827 18 10.5 18V18ZM10.055 7.168C9.9044 7.06752 9.72935 7.00981 9.54852 7.00103C9.36769 6.99224 9.18786 7.03272 9.02823 7.11813C8.8686 7.20354 8.73516 7.33068 8.64213 7.48599C8.54909 7.6413 8.49997 7.81896 8.5 8V12C8.49997 12.181 8.54909 12.3587 8.64213 12.514C8.73516 12.6693 8.8686 12.7965 9.02823 12.8819C9.18786 12.9673 9.36769 13.0078 9.54852 12.999C9.72935 12.9902 9.9044 12.9325 10.055 12.832L13.055 10.832C13.192 10.7407 13.3043 10.617 13.3819 10.4718C13.4596 10.3267 13.5002 10.1646 13.5002 10C13.5002 9.83539 13.4596 9.67332 13.3819 9.52818C13.3043 9.38304 13.192 9.25932 13.055 9.168L10.055 7.168V7.168Z" fill="white"/>
</svg>
