<svg width="21" height="20" viewBox="0 0 21 20" fill="none" xmlns="http://www.w3.org/2000/svg">
<path d="M5.87501 12C5.87501 12.2652 5.98037 12.5196 6.1679 12.7071C6.35544 12.8947 6.60979 13 6.87501 13C7.14023 13 7.39458 12.8947 7.58212 12.7071C7.76965 12.5196 7.87501 12.2652 7.87501 12V6.41403L9.16801 7.70703C9.35661 7.88919 9.60921 7.98998 9.87141 7.9877C10.1336 7.98543 10.3844 7.88026 10.5698 7.69485C10.7552 7.50944 10.8604 7.25863 10.8627 6.99643C10.865 6.73424 10.7642 6.48163 10.582 6.29303L7.58201 3.29303C7.39448 3.10556 7.14017 3.00024 6.87501 3.00024C6.60985 3.00024 6.35554 3.10556 6.16801 3.29303L3.16801 6.29303C2.98585 6.48163 2.88506 6.73424 2.88734 6.99643C2.88961 7.25863 2.99478 7.50944 3.18019 7.69485C3.3656 7.88026 3.61641 7.98543 3.87861 7.9877C4.14081 7.98998 4.39341 7.88919 4.58201 7.70703L5.87501 6.41403V12ZM15.875 8.00003C15.875 7.73481 15.7697 7.48046 15.5821 7.29292C15.3946 7.10539 15.1402 7.00003 14.875 7.00003C14.6098 7.00003 14.3554 7.10539 14.1679 7.29292C13.9804 7.48046 13.875 7.73481 13.875 8.00003V13.586L12.582 12.293C12.3934 12.1109 12.1408 12.0101 11.8786 12.0124C11.6164 12.0146 11.3656 12.1198 11.1802 12.3052C10.9948 12.4906 10.8896 12.7414 10.8873 13.0036C10.8851 13.2658 10.9859 13.5184 11.168 13.707L14.168 16.707C14.3555 16.8945 14.6098 16.9998 14.875 16.9998C15.1402 16.9998 15.3945 16.8945 15.582 16.707L18.582 13.707C18.7642 13.5184 18.865 13.2658 18.8627 13.0036C18.8604 12.7414 18.7552 12.4906 18.5698 12.3052C18.3844 12.1198 18.1336 12.0146 17.8714 12.0124C17.6092 12.0101 17.3566 12.1109 17.168 12.293L15.875 13.586V8.00003Z" fill="#CE00E0"/>
</svg>
